{
	"asset":{
		"generator":"Khronos glTF Blender I/O v3.6.27",
		"version":"2.0"
	},
	"scene":0,
	"scenes":[
		{
			"name":"Scene",
			"nodes":[
				0,
				1,
				2,
				3,
				4
			]
		}
	],
	"nodes":[
		{
			"mesh":0,
			"name":"BACK_P5",
			"rotation":[
				-0.43468913435935974,
				0.38148677349090576,
				-0.5910624265670776,
				0.5622796416282654
			],
			"translation":[
				7.050939559936523,
				7.2721734046936035,
				-27.55888557434082
			]
		},
		{
			"mesh":1,
			"name":"BACK_P4",
			"rotation":[
				-0.5509089827537537,
				0.42848801612854004,
				-0.4769424796104431,
				0.5342500805854797
			],
			"translation":[
				0.16645297408103943,
				6.478732109069824,
				-28.36517906188965
			]
		},
		{
			"mesh":2,
			"name":"BACK_P3",
			"rotation":[
				-0.6619756817817688,
				0.5720517635345459,
				-0.3611094653606415,
				0.32271501421928406
			],
			"translation":[
				-6.771670341491699,
				7.28421688079834,
				-27.361391067504883
			]
		},
		{
			"mesh":3,
			"name":"BACK_P2",
			"rotation":[
				-0.5038783550262451,
				0.37700703740119934,
				-0.4645208418369293,
				0.623051106929779
			],
			"translation":[
				4.3386688232421875,
				10.038302421569824,
				-26.83782958984375
			]
		},
		{
			"mesh":4,
			"name":"BACK_P1",
			"rotation":[
				-0.5800917148590088,
				0.5283923745155334,
				-0.38854458928108215,
				0.48304063081741333
			],
			"translation":[
				-3.925611734390259,
				9.97548770904541,
				-27.081035614013672
			]
		}
	],
	"materials":[
		{
			"alphaMode":"BLEND",
			"doubleSided":true,
			"name":"BOXCHECKMARK",
			"pbrMetallicRoughness":{
				"baseColorFactor":[
					0.800000011920929,
					0.800000011920929,
					0.800000011920929,
					0
				],
				"metallicFactor":0,
				"roughnessFactor":0.5
			}
		},
		{
			"doubleSided":true,
			"name":"P5_BACK",
			"pbrMetallicRoughness":{
				"baseColorFactor":[
					0.06300994753837585,
					0.06480321288108826,
					0.056128501892089844,
					1
				],
				"metallicFactor":0,
				"roughnessFactor":0.5
			}
		},
		{
			"doubleSided":true,
			"name":"P4_BACK",
			"pbrMetallicRoughness":{
				"baseColorFactor":[
					0.06300994753837585,
					0.06480321288108826,
					0.056128501892089844,
					1
				],
				"metallicFactor":0,
				"roughnessFactor":0.5
			}
		},
		{
			"doubleSided":true,
			"name":"P3_BACK",
			"pbrMetallicRoughness":{
				"baseColorFactor":[
					0.06300994753837585,
					0.06480321288108826,
					0.056128501892089844,
					1
				],
				"metallicFactor":0,
				"roughnessFactor":0.5
			}
		},
		{
			"doubleSided":true,
			"name":"P2_BACK",
			"pbrMetallicRoughness":{
				"baseColorFactor":[
					0.06300994753837585,
					0.06480321288108826,
					0.056128501892089844,
					1
				],
				"metallicFactor":0,
				"roughnessFactor":0.5
			}
		},
		{
			"doubleSided":true,
			"name":"P1_BACK",
			"pbrMetallicRoughness":{
				"baseColorFactor":[
					0.06300994753837585,
					0.06480321288108826,
					0.056128501892089844,
					1
				],
				"metallicFactor":0,
				"roughnessFactor":0.5
			}
		}
	],
	"meshes":[
		{
			"name":"BACK_P5",
			"primitives":[
				{
					"attributes":{
						"POSITION":0,
						"NORMAL":1,
						"TEXCOORD_0":2
					},
					"indices":3,
					"material":0
				},
				{
					"attributes":{
						"POSITION":4,
						"NORMAL":5,
						"TEXCOORD_0":6
					},
					"indices":7,
					"material":1
				}
			]
		},
		{
			"name":"BACK_P4",
			"primitives":[
				{
					"attributes":{
						"POSITION":8,
						"NORMAL":9,
						"TEXCOORD_0":10
					},
					"indices":3,
					"material":0
				},
				{
					"attributes":{
						"POSITION":11,
						"NORMAL":12,
						"TEXCOORD_0":13
					},
					"indices":7,
					"material":2
				}
			]
		},
		{
			"name":"BACK_P3",
			"primitives":[
				{
					"attributes":{
						"POSITION":14,
						"NORMAL":15,
						"TEXCOORD_0":16
					},
					"indices":3,
					"material":0
				},
				{
					"attributes":{
						"POSITION":17,
						"NORMAL":18,
						"TEXCOORD_0":19
					},
					"indices":7,
					"material":3
				}
			]
		},
		{
			"name":"BACK_P2",
			"primitives":[
				{
					"attributes":{
						"POSITION":20,
						"NORMAL":21,
						"TEXCOORD_0":22
					},
					"indices":3,
					"material":0
				},
				{
					"attributes":{
						"POSITION":23,
						"NORMAL":24,
						"TEXCOORD_0":25
					},
					"indices":7,
					"material":4
				}
			]
		},
		{
			"name":"BACK_P1",
			"primitives":[
				{
					"attributes":{
						"POSITION":26,
						"NORMAL":27,
						"TEXCOORD_0":28
					},
					"indices":3,
					"material":0
				},
				{
					"attributes":{
						"POSITION":29,
						"NORMAL":30,
						"TEXCOORD_0":31
					},
					"indices":7,
					"material":5
				}
			]
		}
	],
	"accessors":[
		{
			"bufferView":0,
			"componentType":5126,
			"count":226,
			"max":[
				0.8463594317436218,
				0.2657238841056824,
				0.8439249396324158
			],
			"min":[
				-0.8456231951713562,
				-0.11209233105182648,
				-0.844049334526062
			],
			"type":"VEC3"
		},
		{
			"bufferView":1,
			"componentType":5126,
			"count":226,
			"type":"VEC3"
		},
		{
			"bufferView":2,
			"componentType":5126,
			"count":226,
			"type":"VEC2"
		},
		{
			"bufferView":3,
			"componentType":5123,
			"count":432,
			"type":"SCALAR"
		},
		{
			"bufferView":4,
			"componentType":5126,
			"count":6,
			"max":[
				0.6536732912063599,
				0.30881574749946594,
				0.4567876160144806
			],
			"min":[
				-0.44103318452835083,
				0.30881574749946594,
				-0.44890427589416504
			],
			"type":"VEC3"
		},
		{
			"bufferView":5,
			"componentType":5126,
			"count":6,
			"type":"VEC3"
		},
		{
			"bufferView":6,
			"componentType":5126,
			"count":6,
			"type":"VEC2"
		},
		{
			"bufferView":7,
			"componentType":5123,
			"count":12,
			"type":"SCALAR"
		},
		{
			"bufferView":8,
			"componentType":5126,
			"count":226,
			"max":[
				0.8463594317436218,
				0.2657238841056824,
				0.8439249396324158
			],
			"min":[
				-0.8456231951713562,
				-0.11209233105182648,
				-0.844049334526062
			],
			"type":"VEC3"
		},
		{
			"bufferView":9,
			"componentType":5126,
			"count":226,
			"type":"VEC3"
		},
		{
			"bufferView":10,
			"componentType":5126,
			"count":226,
			"type":"VEC2"
		},
		{
			"bufferView":11,
			"componentType":5126,
			"count":6,
			"max":[
				0.6536736488342285,
				0.30881381034851074,
				0.456781804561615
			],
			"min":[
				-0.44103285670280457,
				0.30881381034851074,
				-0.4489099085330963
			],
			"type":"VEC3"
		},
		{
			"bufferView":12,
			"componentType":5126,
			"count":6,
			"type":"VEC3"
		},
		{
			"bufferView":13,
			"componentType":5126,
			"count":6,
			"type":"VEC2"
		},
		{
			"bufferView":14,
			"componentType":5126,
			"count":226,
			"max":[
				0.8463594317436218,
				0.2657238841056824,
				0.8439249396324158
			],
			"min":[
				-0.8456231951713562,
				-0.11209233105182648,
				-0.844049334526062
			],
			"type":"VEC3"
		},
		{
			"bufferView":15,
			"componentType":5126,
			"count":226,
			"type":"VEC3"
		},
		{
			"bufferView":16,
			"componentType":5126,
			"count":226,
			"type":"VEC2"
		},
		{
			"bufferView":17,
			"componentType":5126,
			"count":6,
			"max":[
				0.6536725759506226,
				0.30881378054618835,
				0.4567837119102478
			],
			"min":[
				-0.4410337209701538,
				0.30881378054618835,
				-0.4489080011844635
			],
			"type":"VEC3"
		},
		{
			"bufferView":18,
			"componentType":5126,
			"count":6,
			"type":"VEC3"
		},
		{
			"bufferView":19,
			"componentType":5126,
			"count":6,
			"type":"VEC2"
		},
		{
			"bufferView":20,
			"componentType":5126,
			"count":226,
			"max":[
				0.8463594317436218,
				0.2657238841056824,
				0.8439249396324158
			],
			"min":[
				-0.8456231951713562,
				-0.11209233105182648,
				-0.844049334526062
			],
			"type":"VEC3"
		},
		{
			"bufferView":21,
			"componentType":5126,
			"count":226,
			"type":"VEC3"
		},
		{
			"bufferView":22,
			"componentType":5126,
			"count":226,
			"type":"VEC2"
		},
		{
			"bufferView":23,
			"componentType":5126,
			"count":6,
			"max":[
				0.6536737680435181,
				0.30881381034851074,
				0.4567837417125702
			],
			"min":[
				-0.44103261828422546,
				0.30881381034851074,
				-0.4489080309867859
			],
			"type":"VEC3"
		},
		{
			"bufferView":24,
			"componentType":5126,
			"count":6,
			"type":"VEC3"
		},
		{
			"bufferView":25,
			"componentType":5126,
			"count":6,
			"type":"VEC2"
		},
		{
			"bufferView":26,
			"componentType":5126,
			"count":226,
			"max":[
				0.8463594317436218,
				0.2657238841056824,
				0.8439249396324158
			],
			"min":[
				-0.8456231951713562,
				-0.11209233105182648,
				-0.844049334526062
			],
			"type":"VEC3"
		},
		{
			"bufferView":27,
			"componentType":5126,
			"count":226,
			"type":"VEC3"
		},
		{
			"bufferView":28,
			"componentType":5126,
			"count":226,
			"type":"VEC2"
		},
		{
			"bufferView":29,
			"componentType":5126,
			"count":6,
			"max":[
				0.6536726355552673,
				0.30881384015083313,
				0.4567837417125702
			],
			"min":[
				-0.4410337507724762,
				0.30881378054618835,
				-0.4489080309867859
			],
			"type":"VEC3"
		},
		{
			"bufferView":30,
			"componentType":5126,
			"count":6,
			"type":"VEC3"
		},
		{
			"bufferView":31,
			"componentType":5126,
			"count":6,
			"type":"VEC2"
		}
	],
	"bufferViews":[
		{
			"buffer":0,
			"byteLength":2712,
			"byteOffset":0,
			"target":34962
		},
		{
			"buffer":0,
			"byteLength":2712,
			"byteOffset":2712,
			"target":34962
		},
		{
			"buffer":0,
			"byteLength":1808,
			"byteOffset":5424,
			"target":34962
		},
		{
			"buffer":0,
			"byteLength":864,
			"byteOffset":7232,
			"target":34963
		},
		{
			"buffer":0,
			"byteLength":72,
			"byteOffset":8096,
			"target":34962
		},
		{
			"buffer":0,
			"byteLength":72,
			"byteOffset":8168,
			"target":34962
		},
		{
			"buffer":0,
			"byteLength":48,
			"byteOffset":8240,
			"target":34962
		},
		{
			"buffer":0,
			"byteLength":24,
			"byteOffset":8288,
			"target":34963
		},
		{
			"buffer":0,
			"byteLength":2712,
			"byteOffset":8312,
			"target":34962
		},
		{
			"buffer":0,
			"byteLength":2712,
			"byteOffset":11024,
			"target":34962
		},
		{
			"buffer":0,
			"byteLength":1808,
			"byteOffset":13736,
			"target":34962
		},
		{
			"buffer":0,
			"byteLength":72,
			"byteOffset":15544,
			"target":34962
		},
		{
			"buffer":0,
			"byteLength":72,
			"byteOffset":15616,
			"target":34962
		},
		{
			"buffer":0,
			"byteLength":48,
			"byteOffset":15688,
			"target":34962
		},
		{
			"buffer":0,
			"byteLength":2712,
			"byteOffset":15736,
			"target":34962
		},
		{
			"buffer":0,
			"byteLength":2712,
			"byteOffset":18448,
			"target":34962
		},
		{
			"buffer":0,
			"byteLength":1808,
			"byteOffset":21160,
			"target":34962
		},
		{
			"buffer":0,
			"byteLength":72,
			"byteOffset":22968,
			"target":34962
		},
		{
			"buffer":0,
			"byteLength":72,
			"byteOffset":23040,
			"target":34962
		},
		{
			"buffer":0,
			"byteLength":48,
			"byteOffset":23112,
			"target":34962
		},
		{
			"buffer":0,
			"byteLength":2712,
			"byteOffset":23160,
			"target":34962
		},
		{
			"buffer":0,
			"byteLength":2712,
			"byteOffset":25872,
			"target":34962
		},
		{
			"buffer":0,
			"byteLength":1808,
			"byteOffset":28584,
			"target":34962
		},
		{
			"buffer":0,
			"byteLength":72,
			"byteOffset":30392,
			"target":34962
		},
		{
			"buffer":0,
			"byteLength":72,
			"byteOffset":30464,
			"target":34962
		},
		{
			"buffer":0,
			"byteLength":48,
			"byteOffset":30536,
			"target":34962
		},
		{
			"buffer":0,
			"byteLength":2712,
			"byteOffset":30584,
			"target":34962
		},
		{
			"buffer":0,
			"byteLength":2712,
			"byteOffset":33296,
			"target":34962
		},
		{
			"buffer":0,
			"byteLength":1808,
			"byteOffset":36008,
			"target":34962
		},
		{
			"buffer":0,
			"byteLength":72,
			"byteOffset":37816,
			"target":34962
		},
		{
			"buffer":0,
			"byteLength":72,
			"byteOffset":37888,
			"target":34962
		},
		{
			"buffer":0,
			"byteLength":48,
			"byteOffset":37960,
			"target":34962
		}
	],
	"buffers":[
		{
			"byteLength":38008,
			"uri":"back.bin"
		}
	]
}
