{
	"asset":{
		"generator":"Khronos glTF Blender I/O v3.6.27",
		"version":"2.0"
	},
	"scene":0,
	"scenes":[
		{
			"name":"Scene",
			"nodes":[
				0,
				1,
				2
			]
		}
	],
	"nodes":[
		{
			"mesh":0,
			"name":"FRONT_P3",
			"rotation":[
				0.45127809047698975,
				-0.40052738785743713,
				-0.6041191816329956,
				0.5205438733100891
			],
			"translation":[
				6.7802910804748535,
				2.653681755065918,
				27.072368621826172
			]
		},
		{
			"mesh":1,
			"name":"FRONT_P2",
			"rotation":[
				0.47722116112709045,
				-0.5344668626785278,
				-0.5506675839424133,
				0.42821773886680603
			],
			"translation":[
				0.1300847828388214,
				2.525836229324341,
				28.069137573242188
			]
		},
		{
			"mesh":2,
			"name":"FRONT_P1",
			"rotation":[
				0.5912822484970093,
				-0.5624725818634033,
				-0.43438997864723206,
				0.3812023103237152
			],
			"translation":[
				-6.753582954406738,
				2.6416382789611816,
				27.255878448486328
			]
		}
	],
	"materials":[
		{
			"alphaMode":"BLEND",
			"doubleSided":true,
			"name":"BOXCHECKMARK",
			"pbrMetallicRoughness":{
				"baseColorFactor":[
					0.800000011920929,
					0.800000011920929,
					0.800000011920929,
					0
				],
				"metallicFactor":0,
				"roughnessFactor":0.5
			}
		},
		{
			"doubleSided":true,
			"name":"P3_FRONT",
			"pbrMetallicRoughness":{
				"baseColorFactor":[
					0.06300994753837585,
					0.06480321288108826,
					0.056128501892089844,
					1
				],
				"metallicFactor":0,
				"roughnessFactor":0.5
			}
		},
		{
			"doubleSided":true,
			"name":"P2_FRONT",
			"pbrMetallicRoughness":{
				"baseColorFactor":[
					0.06300994753837585,
					0.06480321288108826,
					0.056128501892089844,
					1
				],
				"metallicFactor":0,
				"roughnessFactor":0.5
			}
		},
		{
			"doubleSided":true,
			"name":"P1_FRONT",
			"pbrMetallicRoughness":{
				"baseColorFactor":[
					0.06300994753837585,
					0.06480321288108826,
					0.056128501892089844,
					1
				],
				"metallicFactor":0,
				"roughnessFactor":0.5
			}
		}
	],
	"meshes":[
		{
			"name":"FRONT_P3",
			"primitives":[
				{
					"attributes":{
						"POSITION":0,
						"NORMAL":1,
						"TEXCOORD_0":2
					},
					"indices":3,
					"material":0
				},
				{
					"attributes":{
						"POSITION":4,
						"NORMAL":5,
						"TEXCOORD_0":6
					},
					"indices":7,
					"material":1
				}
			]
		},
		{
			"name":"FRONT_P2",
			"primitives":[
				{
					"attributes":{
						"POSITION":8,
						"NORMAL":9,
						"TEXCOORD_0":10
					},
					"indices":3,
					"material":0
				},
				{
					"attributes":{
						"POSITION":11,
						"NORMAL":12,
						"TEXCOORD_0":13
					},
					"indices":7,
					"material":2
				}
			]
		},
		{
			"name":"FRONT_P1",
			"primitives":[
				{
					"attributes":{
						"POSITION":14,
						"NORMAL":15,
						"TEXCOORD_0":16
					},
					"indices":3,
					"material":0
				},
				{
					"attributes":{
						"POSITION":17,
						"NORMAL":18,
						"TEXCOORD_0":19
					},
					"indices":7,
					"material":3
				}
			]
		}
	],
	"accessors":[
		{
			"bufferView":0,
			"componentType":5126,
			"count":226,
			"max":[
				0.8463594317436218,
				0.2657238841056824,
				0.8439249396324158
			],
			"min":[
				-0.8456231951713562,
				-0.11209233105182648,
				-0.844049334526062
			],
			"type":"VEC3"
		},
		{
			"bufferView":1,
			"componentType":5126,
			"count":226,
			"type":"VEC3"
		},
		{
			"bufferView":2,
			"componentType":5126,
			"count":226,
			"type":"VEC2"
		},
		{
			"bufferView":3,
			"componentType":5123,
			"count":432,
			"type":"SCALAR"
		},
		{
			"bufferView":4,
			"componentType":5126,
			"count":6,
			"max":[
				0.6536725759506226,
				0.30881378054618835,
				0.4567837119102478
			],
			"min":[
				-0.4410337209701538,
				0.30881378054618835,
				-0.4489080011844635
			],
			"type":"VEC3"
		},
		{
			"bufferView":5,
			"componentType":5126,
			"count":6,
			"type":"VEC3"
		},
		{
			"bufferView":6,
			"componentType":5126,
			"count":6,
			"type":"VEC2"
		},
		{
			"bufferView":7,
			"componentType":5123,
			"count":12,
			"type":"SCALAR"
		},
		{
			"bufferView":8,
			"componentType":5126,
			"count":226,
			"max":[
				0.8463594317436218,
				0.2657238841056824,
				0.8439249396324158
			],
			"min":[
				-0.8456231951713562,
				-0.11209233105182648,
				-0.844049334526062
			],
			"type":"VEC3"
		},
		{
			"bufferView":9,
			"componentType":5126,
			"count":226,
			"type":"VEC3"
		},
		{
			"bufferView":10,
			"componentType":5126,
			"count":226,
			"type":"VEC2"
		},
		{
			"bufferView":11,
			"componentType":5126,
			"count":6,
			"max":[
				0.6536736488342285,
				0.30881381034851074,
				0.456781804561615
			],
			"min":[
				-0.44103285670280457,
				0.30881381034851074,
				-0.4489099085330963
			],
			"type":"VEC3"
		},
		{
			"bufferView":12,
			"componentType":5126,
			"count":6,
			"type":"VEC3"
		},
		{
			"bufferView":13,
			"componentType":5126,
			"count":6,
			"type":"VEC2"
		},
		{
			"bufferView":14,
			"componentType":5126,
			"count":226,
			"max":[
				0.8463594317436218,
				0.2657238841056824,
				0.8439249396324158
			],
			"min":[
				-0.8456231951713562,
				-0.11209233105182648,
				-0.844049334526062
			],
			"type":"VEC3"
		},
		{
			"bufferView":15,
			"componentType":5126,
			"count":226,
			"type":"VEC3"
		},
		{
			"bufferView":16,
			"componentType":5126,
			"count":226,
			"type":"VEC2"
		},
		{
			"bufferView":17,
			"componentType":5126,
			"count":6,
			"max":[
				0.6536732912063599,
				0.30881574749946594,
				0.4567876160144806
			],
			"min":[
				-0.44103318452835083,
				0.30881574749946594,
				-0.44890427589416504
			],
			"type":"VEC3"
		},
		{
			"bufferView":18,
			"componentType":5126,
			"count":6,
			"type":"VEC3"
		},
		{
			"bufferView":19,
			"componentType":5126,
			"count":6,
			"type":"VEC2"
		}
	],
	"bufferViews":[
		{
			"buffer":0,
			"byteLength":2712,
			"byteOffset":0,
			"target":34962
		},
		{
			"buffer":0,
			"byteLength":2712,
			"byteOffset":2712,
			"target":34962
		},
		{
			"buffer":0,
			"byteLength":1808,
			"byteOffset":5424,
			"target":34962
		},
		{
			"buffer":0,
			"byteLength":864,
			"byteOffset":7232,
			"target":34963
		},
		{
			"buffer":0,
			"byteLength":72,
			"byteOffset":8096,
			"target":34962
		},
		{
			"buffer":0,
			"byteLength":72,
			"byteOffset":8168,
			"target":34962
		},
		{
			"buffer":0,
			"byteLength":48,
			"byteOffset":8240,
			"target":34962
		},
		{
			"buffer":0,
			"byteLength":24,
			"byteOffset":8288,
			"target":34963
		},
		{
			"buffer":0,
			"byteLength":2712,
			"byteOffset":8312,
			"target":34962
		},
		{
			"buffer":0,
			"byteLength":2712,
			"byteOffset":11024,
			"target":34962
		},
		{
			"buffer":0,
			"byteLength":1808,
			"byteOffset":13736,
			"target":34962
		},
		{
			"buffer":0,
			"byteLength":72,
			"byteOffset":15544,
			"target":34962
		},
		{
			"buffer":0,
			"byteLength":72,
			"byteOffset":15616,
			"target":34962
		},
		{
			"buffer":0,
			"byteLength":48,
			"byteOffset":15688,
			"target":34962
		},
		{
			"buffer":0,
			"byteLength":2712,
			"byteOffset":15736,
			"target":34962
		},
		{
			"buffer":0,
			"byteLength":2712,
			"byteOffset":18448,
			"target":34962
		},
		{
			"buffer":0,
			"byteLength":1808,
			"byteOffset":21160,
			"target":34962
		},
		{
			"buffer":0,
			"byteLength":72,
			"byteOffset":22968,
			"target":34962
		},
		{
			"buffer":0,
			"byteLength":72,
			"byteOffset":23040,
			"target":34962
		},
		{
			"buffer":0,
			"byteLength":48,
			"byteOffset":23112,
			"target":34962
		}
	],
	"buffers":[
		{
			"byteLength":23160,
			"uri":"front.bin"
		}
	]
}
