{
	"asset":{
		"generator":"Khronos glTF Blender I/O v4.0.44",
		"version":"2.0"
	},
	"scene":0,
	"scenes":[
		{
			"name":"Scene",
			"nodes":[
				33
			]
		}
	],
	"nodes":[
		{
			"mesh":0,
			"name":"body_solar_body_0",
			"translation":[
				4.670574526244309e-06,
				-2.6618799893185496e-06,
				6.176997885631863e-06
			]
		},
		{
			"children":[
				0
			],
			"name":"Object_4",
			"translation":[
				-60.23849105834961,
				-3.1607425212860107,
				29.594179153442383
			]
		},
		{
			"children":[
				1
			],
			"name":"body",
			"translation":[
				2.2072792053222656,
				31.960111618041992,
				7.701904773712158
			]
		},
		{
			"mesh":1,
			"name":"glass_solar_glass_0",
			"translation":[
				4.655673365050461e-06,
				0,
				6.191899046825711e-06
			]
		},
		{
			"children":[
				3
			],
			"name":"Object_29",
			"translation":[
				-43.39546585083008,
				-2.6123263835906982,
				3.2356667518615723
			]
		},
		{
			"children":[
				4
			],
			"name":"glass",
			"translation":[
				-14.635750770568848,
				31.41169548034668,
				34.0604133605957
			]
		},
		{
			"mesh":2,
			"name":"glass_trim_colour_solar_glass_rim_0",
			"translation":[
				4.655673365050461e-06,
				0,
				6.176997885631863e-06
			]
		},
		{
			"children":[
				6
			],
			"name":"Object_32",
			"translation":[
				-60.23849105834961,
				-3.1607463359832764,
				29.594173431396484
			]
		},
		{
			"children":[
				7
			],
			"name":"glass_trim_colour",
			"translation":[
				2.2072792053222656,
				31.960111618041992,
				7.701904773712158
			]
		},
		{
			"mesh":3,
			"name":"headlight_left_07 - Default_0",
			"translation":[
				4.663123945647385e-06,
				0,
				2.3772017812007107e-06
			]
		},
		{
			"mesh":4,
			"name":"headlight_left_solar_bottom_0",
			"translation":[
				4.663123945647385e-06,
				0,
				2.3772017812007107e-06
			]
		},
		{
			"mesh":5,
			"name":"headlight_left_solar_glass_0",
			"translation":[
				4.663123945647385e-06,
				0,
				2.3772017812007107e-06
			]
		},
		{
			"mesh":6,
			"name":"headlight_left_solar_headlights_0",
			"translation":[
				4.663123945647385e-06,
				0,
				2.3772017812007107e-06
			]
		},
		{
			"children":[
				9,
				10,
				11,
				12
			],
			"name":"Object_7",
			"translation":[
				15.625210762023926,
				4.442259788513184,
				29.594181060791016
			]
		},
		{
			"children":[
				13
			],
			"name":"headlight_left",
			"translation":[
				-73.65643310546875,
				24.35710906982422,
				7.701901912689209
			]
		},
		{
			"mesh":7,
			"name":"interior_solar_void_0",
			"translation":[
				4.655673365050461e-06,
				0,
				6.176997885631863e-06
			]
		},
		{
			"children":[
				15
			],
			"name":"Object_22",
			"translation":[
				-60.23849105834961,
				-3.1607463359832764,
				29.594173431396484
			]
		},
		{
			"children":[
				16
			],
			"name":"interior",
			"translation":[
				2.2072792053222656,
				31.960111618041992,
				7.701904773712158
			]
		},
		{
			"mesh":8,
			"name":"plastic_trim_solar_bottom_0",
			"translation":[
				4.655673365050461e-06,
				0,
				6.191899046825711e-06
			]
		},
		{
			"mesh":9,
			"name":"plastic_trim_solar_headlights_0",
			"translation":[
				4.655673365050461e-06,
				0,
				6.191899046825711e-06
			]
		},
		{
			"children":[
				18,
				19
			],
			"name":"Object_25",
			"translation":[
				-43.39546585083008,
				-2.6123263835906982,
				3.2356667518615723
			]
		},
		{
			"children":[
				20
			],
			"name":"plastic_trim",
			"translation":[
				-14.635750770568848,
				31.41169548034668,
				34.0604133605957
			]
		},
		{
			"mesh":10,
			"name":"stoplights_solar_bottom_0",
			"translation":[
				4.655673819797812e-06,
				3.060166136492626e-06,
				6.176998340379214e-06
			]
		},
		{
			"mesh":11,
			"name":"stoplights_solar_glass_0",
			"translation":[
				4.655673819797812e-06,
				3.060166136492626e-06,
				6.176998340379214e-06
			]
		},
		{
			"mesh":12,
			"name":"stoplights_solar_headlights_0",
			"translation":[
				4.655673819797812e-06,
				3.060166136492626e-06,
				6.176998340379214e-06
			]
		},
		{
			"children":[
				22,
				23,
				24
			],
			"name":"Object_17",
			"translation":[
				-132.47390747070312,
				-3.8294551372528076,
				51.088706970214844
			]
		},
		{
			"children":[
				25
			],
			"name":"stoplights",
			"translation":[
				74.44268798828125,
				32.62882995605469,
				-13.79262924194336
			]
		},
		{
			"mesh":13,
			"name":"wheels_solar_bottom_0",
			"translation":[
				4.2093074625881854e-06,
				-5.206889909459278e-05,
				0
			]
		},
		{
			"mesh":14,
			"name":"wheels_solar_tier_0",
			"translation":[
				4.2093074625881854e-06,
				-5.206889909459278e-05,
				0
			]
		},
		{
			"children":[
				27,
				28
			],
			"name":"Object_13",
			"translation":[
				1.0793040990829468,
				-19.080442428588867,
				9.313043594360352
			]
		},
		{
			"children":[
				29
			],
			"name":"wheels",
			"rotation":[
				-0.70710688829422,
				0,
				0,
				0.7071066498756409
			],
			"scale":[
				0.23648419976234436,
				0.23648421466350555,
				0.23648422956466675
			],
			"translation":[
				-55.7447509765625,
				11.736327171325684,
				34.26633071899414
			]
		},
		{
			"children":[
				2,
				5,
				8,
				14,
				17,
				21,
				26,
				30
			],
			"name":"RootNode"
		},
		{
			"children":[
				31
			],
			"name":"e1c3e841ff0646e083eb047caad9b7d0.fbx",
			"rotation":[
				0.70710688829422,
				0,
				0,
				0.7071066498756409
			]
		},
		{
			"children":[
				32
			],
			"name":"Sketchfab_model",
			"rotation":[
				-0.5006849765777588,
				0.4993140697479248,
				0.49931424856185913,
				0.5006847977638245
			],
			"scale":[
				0.3316960334777832,
				0.3316960334777832,
				0.3316960334777832
			],
			"translation":[
				-2.4691109657287598,
				0,
				0
			]
		}
	],
	"materials":[
		{
			"doubleSided":true,
			"name":"solar_body",
			"pbrMetallicRoughness":{
				"baseColorFactor":[
					0.5771793723106384,
					0.5771793723106384,
					0.5771793723106384,
					1
				],
				"metallicFactor":0.013807804323732853,
				"roughnessFactor":0.2335914671421051
			}
		},
		{
			"alphaMode":"BLEND",
			"doubleSided":true,
			"name":"solar_glass",
			"pbrMetallicRoughness":{
				"baseColorFactor":[
					0.08976415544748306,
					0.08976415544748306,
					0.08976415544748306,
					0.0684320479631424
				],
				"metallicFactor":0.475079208612442,
				"roughnessFactor":0.11220426112413406
			}
		},
		{
			"doubleSided":true,
			"name":"solar_glass_rim",
			"pbrMetallicRoughness":{
				"baseColorFactor":[
					0,
					0,
					0,
					1
				],
				"metallicFactor":0,
				"roughnessFactor":0.08792681992053986
			}
		},
		{
			"doubleSided":true,
			"name":"07_-_Default",
			"pbrMetallicRoughness":{
				"baseColorFactor":[
					0.12917742133140564,
					0.12917742133140564,
					0.12917742133140564,
					1
				],
				"metallicFactor":0,
				"roughnessFactor":0.2032446712255478
			}
		},
		{
			"doubleSided":true,
			"name":"solar_bottom",
			"pbrMetallicRoughness":{
				"baseColorTexture":{
					"index":0
				},
				"metallicFactor":0,
				"roughnessFactor":0.3185625374317169
			}
		},
		{
			"doubleSided":true,
			"name":"solar_headlights",
			"pbrMetallicRoughness":{
				"baseColorTexture":{
					"index":1
				},
				"metallicFactor":0.8877957463264465,
				"roughnessFactor":0.08792681992053986
			}
		},
		{
			"doubleSided":true,
			"name":"solar_void",
			"pbrMetallicRoughness":{
				"baseColorFactor":[
					0,
					0,
					0,
					1
				],
				"metallicFactor":0,
				"roughnessFactor":0.8929713368415833
			}
		},
		{
			"doubleSided":true,
			"name":"solar_tier",
			"pbrMetallicRoughness":{
				"baseColorTexture":{
					"index":2
				},
				"metallicFactor":0,
				"roughnessFactor":0.8929713368415833
			}
		}
	],
	"meshes":[
		{
			"name":"body_solar_body_0",
			"primitives":[
				{
					"attributes":{
						"POSITION":0,
						"NORMAL":1,
						"TEXCOORD_0":2
					},
					"indices":3,
					"material":0
				}
			]
		},
		{
			"name":"glass_solar_glass_0",
			"primitives":[
				{
					"attributes":{
						"POSITION":4,
						"NORMAL":5,
						"TEXCOORD_0":6
					},
					"indices":7,
					"material":1
				}
			]
		},
		{
			"name":"glass_trim_colour_solar_glass_rim_0",
			"primitives":[
				{
					"attributes":{
						"POSITION":8,
						"NORMAL":9,
						"TEXCOORD_0":10
					},
					"indices":11,
					"material":2
				}
			]
		},
		{
			"name":"headlight_left_07 - Default_0",
			"primitives":[
				{
					"attributes":{
						"POSITION":12,
						"NORMAL":13,
						"TEXCOORD_0":14
					},
					"indices":15,
					"material":3
				}
			]
		},
		{
			"name":"headlight_left_solar_bottom_0",
			"primitives":[
				{
					"attributes":{
						"POSITION":16,
						"NORMAL":17,
						"TEXCOORD_0":18
					},
					"indices":19,
					"material":4
				}
			]
		},
		{
			"name":"headlight_left_solar_glass_0",
			"primitives":[
				{
					"attributes":{
						"POSITION":20,
						"NORMAL":21,
						"TEXCOORD_0":22
					},
					"indices":23,
					"material":1
				}
			]
		},
		{
			"name":"headlight_left_solar_headlights_0",
			"primitives":[
				{
					"attributes":{
						"POSITION":24,
						"NORMAL":25,
						"TEXCOORD_0":26
					},
					"indices":27,
					"material":5
				}
			]
		},
		{
			"name":"interior_solar_void_0",
			"primitives":[
				{
					"attributes":{
						"POSITION":28,
						"NORMAL":29,
						"TEXCOORD_0":30
					},
					"indices":31,
					"material":6
				}
			]
		},
		{
			"name":"plastic_trim_solar_bottom_0",
			"primitives":[
				{
					"attributes":{
						"POSITION":32,
						"NORMAL":33,
						"TEXCOORD_0":34
					},
					"indices":35,
					"material":4
				}
			]
		},
		{
			"name":"plastic_trim_solar_headlights_0",
			"primitives":[
				{
					"attributes":{
						"POSITION":36,
						"NORMAL":37,
						"TEXCOORD_0":38
					},
					"indices":39,
					"material":5
				}
			]
		},
		{
			"name":"stoplights_solar_bottom_0",
			"primitives":[
				{
					"attributes":{
						"POSITION":40,
						"NORMAL":41,
						"TEXCOORD_0":42
					},
					"indices":43,
					"material":4
				}
			]
		},
		{
			"name":"stoplights_solar_glass_0",
			"primitives":[
				{
					"attributes":{
						"POSITION":44,
						"NORMAL":45,
						"TEXCOORD_0":46
					},
					"indices":47,
					"material":1
				}
			]
		},
		{
			"name":"stoplights_solar_headlights_0",
			"primitives":[
				{
					"attributes":{
						"POSITION":48,
						"NORMAL":49,
						"TEXCOORD_0":50
					},
					"indices":51,
					"material":5
				}
			]
		},
		{
			"name":"wheels_solar_bottom_0",
			"primitives":[
				{
					"attributes":{
						"POSITION":52,
						"NORMAL":53,
						"TEXCOORD_0":54
					},
					"indices":55,
					"material":4
				}
			]
		},
		{
			"name":"wheels_solar_tier_0",
			"primitives":[
				{
					"attributes":{
						"POSITION":56,
						"NORMAL":57,
						"TEXCOORD_0":58
					},
					"indices":59,
					"material":7
				}
			]
		}
	],
	"textures":[
		{
			"sampler":0,
			"source":0
		},
		{
			"sampler":0,
			"source":1
		},
		{
			"sampler":0,
			"source":2
		}
	],
	"images":[
		{
			"mimeType":"image/png",
			"name":"solar_bottom_baseColor",
			"uri":"solar_bottom_baseColor.png"
		},
		{
			"mimeType":"image/png",
			"name":"solar_headlights_baseColor",
			"uri":"solar_headlights_baseColor.png"
		},
		{
			"mimeType":"image/png",
			"name":"solar_tier_baseColor",
			"uri":"solar_tier_baseColor.png"
		}
	],
	"accessors":[
		{
			"bufferView":0,
			"componentType":5126,
			"count":2377,
			"max":[
				144.10289001464844,
				27.895082473754883,
				4.00771427154541
			],
			"min":[
				-27.18246841430664,
				-23.658493041992188,
				-63.19606399536133
			],
			"type":"VEC3"
		},
		{
			"bufferView":1,
			"componentType":5126,
			"count":2377,
			"type":"VEC3"
		},
		{
			"bufferView":2,
			"componentType":5126,
			"count":2377,
			"type":"VEC2"
		},
		{
			"bufferView":3,
			"componentType":5123,
			"count":6714,
			"type":"SCALAR"
		},
		{
			"bufferView":4,
			"componentType":5126,
			"count":262,
			"max":[
				120.9952392578125,
				26.10728645324707,
				-2.822504758834839
			],
			"min":[
				12.878670692443848,
				7.229641914367676,
				-56.3658447265625
			],
			"type":"VEC3"
		},
		{
			"bufferView":5,
			"componentType":5126,
			"count":262,
			"type":"VEC3"
		},
		{
			"bufferView":6,
			"componentType":5126,
			"count":262,
			"type":"VEC2"
		},
		{
			"bufferView":7,
			"componentType":5123,
			"count":816,
			"type":"SCALAR"
		},
		{
			"bufferView":8,
			"componentType":5126,
			"count":122,
			"max":[
				123.0379638671875,
				26.219482421875,
				-5.189361095428467
			],
			"min":[
				9.632401466369629,
				9.882379531860352,
				-53.998985290527344
			],
			"type":"VEC3"
		},
		{
			"bufferView":9,
			"componentType":5126,
			"count":122,
			"type":"VEC3"
		},
		{
			"bufferView":10,
			"componentType":5126,
			"count":122,
			"type":"VEC2"
		},
		{
			"bufferView":11,
			"componentType":5123,
			"count":360,
			"type":"SCALAR"
		},
		{
			"bufferView":12,
			"componentType":5126,
			"count":92,
			"max":[
				-12.562236785888672,
				-4.049421310424805,
				-3.8647282123565674
			],
			"min":[
				-21.105693817138672,
				-6.007817268371582,
				-55.32361602783203
			],
			"type":"VEC3"
		},
		{
			"bufferView":13,
			"componentType":5126,
			"count":92,
			"type":"VEC3"
		},
		{
			"bufferView":14,
			"componentType":5126,
			"count":92,
			"type":"VEC2"
		},
		{
			"bufferView":15,
			"componentType":5123,
			"count":288,
			"type":"SCALAR"
		},
		{
			"bufferView":16,
			"componentType":5126,
			"count":291,
			"max":[
				-7.675410270690918,
				0.19955158233642578,
				-1.731956958770752
			],
			"min":[
				-24.3959903717041,
				-9.084078788757324,
				-57.456390380859375
			],
			"type":"VEC3"
		},
		{
			"bufferView":17,
			"componentType":5126,
			"count":291,
			"type":"VEC3"
		},
		{
			"bufferView":18,
			"componentType":5126,
			"count":291,
			"type":"VEC2"
		},
		{
			"bufferView":19,
			"componentType":5123,
			"count":900,
			"type":"SCALAR"
		},
		{
			"bufferView":20,
			"componentType":5126,
			"count":54,
			"max":[
				-8.446172714233398,
				0.19955158233642578,
				-1.7319623231887817
			],
			"min":[
				-24.3959903717041,
				-9.084078788757324,
				-57.456382751464844
			],
			"type":"VEC3"
		},
		{
			"bufferView":21,
			"componentType":5126,
			"count":54,
			"type":"VEC3"
		},
		{
			"bufferView":22,
			"componentType":5126,
			"count":54,
			"type":"VEC2"
		},
		{
			"bufferView":23,
			"componentType":5123,
			"count":144,
			"type":"SCALAR"
		},
		{
			"bufferView":24,
			"componentType":5126,
			"count":138,
			"max":[
				-8.583564758300781,
				-0.018932342529296875,
				-1.9840550422668457
			],
			"min":[
				-23.818565368652344,
				-18.85945701599121,
				-57.20429229736328
			],
			"type":"VEC3"
		},
		{
			"bufferView":25,
			"componentType":5126,
			"count":138,
			"type":"VEC3"
		},
		{
			"bufferView":26,
			"componentType":5126,
			"count":138,
			"type":"VEC2"
		},
		{
			"bufferView":27,
			"componentType":5123,
			"count":390,
			"type":"SCALAR"
		},
		{
			"bufferView":28,
			"componentType":5126,
			"count":1840,
			"max":[
				140.12777709960938,
				26.330244064331055,
				-1.6508313417434692
			],
			"min":[
				12.878673553466797,
				-20.025043487548828,
				-57.537513732910156
			],
			"type":"VEC3"
		},
		{
			"bufferView":29,
			"componentType":5126,
			"count":1840,
			"type":"VEC3"
		},
		{
			"bufferView":30,
			"componentType":5126,
			"count":1840,
			"type":"VEC2"
		},
		{
			"bufferView":31,
			"componentType":5123,
			"count":5115,
			"type":"SCALAR"
		},
		{
			"bufferView":32,
			"componentType":5126,
			"count":3086,
			"max":[
				143.77621459960938,
				27.060514450073242,
				4.007713317871094
			],
			"min":[
				-27.411888122558594,
				-23.658496856689453,
				-63.19606399536133
			],
			"type":"VEC3"
		},
		{
			"bufferView":33,
			"componentType":5126,
			"count":3086,
			"type":"VEC3"
		},
		{
			"bufferView":34,
			"componentType":5126,
			"count":3086,
			"type":"VEC2"
		},
		{
			"bufferView":35,
			"componentType":5123,
			"count":8679,
			"type":"SCALAR"
		},
		{
			"bufferView":36,
			"componentType":5126,
			"count":6,
			"max":[
				-18.997631072998047,
				-17.88234519958496,
				-2.8204612731933594
			],
			"min":[
				-19.117168426513672,
				-18.430631637573242,
				-56.367881774902344
			],
			"type":"VEC3"
		},
		{
			"bufferView":37,
			"componentType":5126,
			"count":6,
			"type":"VEC3"
		},
		{
			"bufferView":38,
			"componentType":5126,
			"count":6,
			"type":"VEC2"
		},
		{
			"bufferView":39,
			"componentType":5123,
			"count":6,
			"type":"SCALAR"
		},
		{
			"bufferView":40,
			"componentType":5126,
			"count":93,
			"max":[
				139.14572143554688,
				8.732267379760742,
				-1.0948669910430908
			],
			"min":[
				125.80211639404297,
				-1.0733574628829956,
				-58.09347915649414
			],
			"type":"VEC3"
		},
		{
			"bufferView":41,
			"componentType":5126,
			"count":93,
			"type":"VEC3"
		},
		{
			"bufferView":42,
			"componentType":5126,
			"count":93,
			"type":"VEC2"
		},
		{
			"bufferView":43,
			"componentType":5123,
			"count":156,
			"type":"SCALAR"
		},
		{
			"bufferView":44,
			"componentType":5126,
			"count":48,
			"max":[
				139.1457061767578,
				8.732267379760742,
				-1.0948669910430908
			],
			"min":[
				125.80210876464844,
				-1.0733574628829956,
				-58.09347915649414
			],
			"type":"VEC3"
		},
		{
			"bufferView":45,
			"componentType":5126,
			"count":48,
			"type":"VEC3"
		},
		{
			"bufferView":46,
			"componentType":5126,
			"count":48,
			"type":"VEC2"
		},
		{
			"bufferView":47,
			"componentType":5123,
			"count":132,
			"type":"SCALAR"
		},
		{
			"bufferView":48,
			"componentType":5126,
			"count":263,
			"max":[
				140.02682495117188,
				10.77421760559082,
				-1.0948669910430908
			],
			"min":[
				125.80211639404297,
				-1.0733574628829956,
				-58.09347915649414
			],
			"type":"VEC3"
		},
		{
			"bufferView":49,
			"componentType":5126,
			"count":263,
			"type":"VEC3"
		},
		{
			"bufferView":50,
			"componentType":5126,
			"count":263,
			"type":"VEC2"
		},
		{
			"bufferView":51,
			"componentType":5123,
			"count":606,
			"type":"SCALAR"
		},
		{
			"bufferView":52,
			"componentType":5126,
			"count":3588,
			"max":[
				488.4074401855469,
				267.3963317871094,
				29.508129119873047
			],
			"min":[
				-40.11433410644531,
				-4.499581336975098,
				-48.13423538208008
			],
			"type":"VEC3"
		},
		{
			"bufferView":53,
			"componentType":5126,
			"count":3588,
			"type":"VEC3"
		},
		{
			"bufferView":54,
			"componentType":5126,
			"count":3588,
			"type":"VEC2"
		},
		{
			"bufferView":55,
			"componentType":5123,
			"count":10920,
			"type":"SCALAR"
		},
		{
			"bufferView":56,
			"componentType":5126,
			"count":1573,
			"max":[
				499.05511474609375,
				266.31396484375,
				40.38057327270508
			],
			"min":[
				-50.774925231933594,
				-3.417219400405884,
				-58.99772644042969
			],
			"type":"VEC3"
		},
		{
			"bufferView":57,
			"componentType":5126,
			"count":1573,
			"type":"VEC3"
		},
		{
			"bufferView":58,
			"componentType":5126,
			"count":1573,
			"type":"VEC2"
		},
		{
			"bufferView":59,
			"componentType":5123,
			"count":3360,
			"type":"SCALAR"
		}
	],
	"bufferViews":[
		{
			"buffer":0,
			"byteLength":28524,
			"byteOffset":0,
			"target":34962
		},
		{
			"buffer":0,
			"byteLength":28524,
			"byteOffset":28524,
			"target":34962
		},
		{
			"buffer":0,
			"byteLength":19016,
			"byteOffset":57048,
			"target":34962
		},
		{
			"buffer":0,
			"byteLength":13428,
			"byteOffset":76064,
			"target":34963
		},
		{
			"buffer":0,
			"byteLength":3144,
			"byteOffset":89492,
			"target":34962
		},
		{
			"buffer":0,
			"byteLength":3144,
			"byteOffset":92636,
			"target":34962
		},
		{
			"buffer":0,
			"byteLength":2096,
			"byteOffset":95780,
			"target":34962
		},
		{
			"buffer":0,
			"byteLength":1632,
			"byteOffset":97876,
			"target":34963
		},
		{
			"buffer":0,
			"byteLength":1464,
			"byteOffset":99508,
			"target":34962
		},
		{
			"buffer":0,
			"byteLength":1464,
			"byteOffset":100972,
			"target":34962
		},
		{
			"buffer":0,
			"byteLength":976,
			"byteOffset":102436,
			"target":34962
		},
		{
			"buffer":0,
			"byteLength":720,
			"byteOffset":103412,
			"target":34963
		},
		{
			"buffer":0,
			"byteLength":1104,
			"byteOffset":104132,
			"target":34962
		},
		{
			"buffer":0,
			"byteLength":1104,
			"byteOffset":105236,
			"target":34962
		},
		{
			"buffer":0,
			"byteLength":736,
			"byteOffset":106340,
			"target":34962
		},
		{
			"buffer":0,
			"byteLength":576,
			"byteOffset":107076,
			"target":34963
		},
		{
			"buffer":0,
			"byteLength":3492,
			"byteOffset":107652,
			"target":34962
		},
		{
			"buffer":0,
			"byteLength":3492,
			"byteOffset":111144,
			"target":34962
		},
		{
			"buffer":0,
			"byteLength":2328,
			"byteOffset":114636,
			"target":34962
		},
		{
			"buffer":0,
			"byteLength":1800,
			"byteOffset":116964,
			"target":34963
		},
		{
			"buffer":0,
			"byteLength":648,
			"byteOffset":118764,
			"target":34962
		},
		{
			"buffer":0,
			"byteLength":648,
			"byteOffset":119412,
			"target":34962
		},
		{
			"buffer":0,
			"byteLength":432,
			"byteOffset":120060,
			"target":34962
		},
		{
			"buffer":0,
			"byteLength":288,
			"byteOffset":120492,
			"target":34963
		},
		{
			"buffer":0,
			"byteLength":1656,
			"byteOffset":120780,
			"target":34962
		},
		{
			"buffer":0,
			"byteLength":1656,
			"byteOffset":122436,
			"target":34962
		},
		{
			"buffer":0,
			"byteLength":1104,
			"byteOffset":124092,
			"target":34962
		},
		{
			"buffer":0,
			"byteLength":780,
			"byteOffset":125196,
			"target":34963
		},
		{
			"buffer":0,
			"byteLength":22080,
			"byteOffset":125976,
			"target":34962
		},
		{
			"buffer":0,
			"byteLength":22080,
			"byteOffset":148056,
			"target":34962
		},
		{
			"buffer":0,
			"byteLength":14720,
			"byteOffset":170136,
			"target":34962
		},
		{
			"buffer":0,
			"byteLength":10230,
			"byteOffset":184856,
			"target":34963
		},
		{
			"buffer":0,
			"byteLength":37032,
			"byteOffset":195088,
			"target":34962
		},
		{
			"buffer":0,
			"byteLength":37032,
			"byteOffset":232120,
			"target":34962
		},
		{
			"buffer":0,
			"byteLength":24688,
			"byteOffset":269152,
			"target":34962
		},
		{
			"buffer":0,
			"byteLength":17358,
			"byteOffset":293840,
			"target":34963
		},
		{
			"buffer":0,
			"byteLength":72,
			"byteOffset":311200,
			"target":34962
		},
		{
			"buffer":0,
			"byteLength":72,
			"byteOffset":311272,
			"target":34962
		},
		{
			"buffer":0,
			"byteLength":48,
			"byteOffset":311344,
			"target":34962
		},
		{
			"buffer":0,
			"byteLength":12,
			"byteOffset":311392,
			"target":34963
		},
		{
			"buffer":0,
			"byteLength":1116,
			"byteOffset":311404,
			"target":34962
		},
		{
			"buffer":0,
			"byteLength":1116,
			"byteOffset":312520,
			"target":34962
		},
		{
			"buffer":0,
			"byteLength":744,
			"byteOffset":313636,
			"target":34962
		},
		{
			"buffer":0,
			"byteLength":312,
			"byteOffset":314380,
			"target":34963
		},
		{
			"buffer":0,
			"byteLength":576,
			"byteOffset":314692,
			"target":34962
		},
		{
			"buffer":0,
			"byteLength":576,
			"byteOffset":315268,
			"target":34962
		},
		{
			"buffer":0,
			"byteLength":384,
			"byteOffset":315844,
			"target":34962
		},
		{
			"buffer":0,
			"byteLength":264,
			"byteOffset":316228,
			"target":34963
		},
		{
			"buffer":0,
			"byteLength":3156,
			"byteOffset":316492,
			"target":34962
		},
		{
			"buffer":0,
			"byteLength":3156,
			"byteOffset":319648,
			"target":34962
		},
		{
			"buffer":0,
			"byteLength":2104,
			"byteOffset":322804,
			"target":34962
		},
		{
			"buffer":0,
			"byteLength":1212,
			"byteOffset":324908,
			"target":34963
		},
		{
			"buffer":0,
			"byteLength":43056,
			"byteOffset":326120,
			"target":34962
		},
		{
			"buffer":0,
			"byteLength":43056,
			"byteOffset":369176,
			"target":34962
		},
		{
			"buffer":0,
			"byteLength":28704,
			"byteOffset":412232,
			"target":34962
		},
		{
			"buffer":0,
			"byteLength":21840,
			"byteOffset":440936,
			"target":34963
		},
		{
			"buffer":0,
			"byteLength":18876,
			"byteOffset":462776,
			"target":34962
		},
		{
			"buffer":0,
			"byteLength":18876,
			"byteOffset":481652,
			"target":34962
		},
		{
			"buffer":0,
			"byteLength":12584,
			"byteOffset":500528,
			"target":34962
		},
		{
			"buffer":0,
			"byteLength":6720,
			"byteOffset":513112,
			"target":34963
		}
	],
	"samplers":[
		{
			"magFilter":9729,
			"minFilter":9987
		}
	],
	"buffers":[
		{
			"byteLength":519832,
			"uri":"sedan.bin"
		}
	]
}
