{
	"asset":{
		"generator":"Khronos glTF Blender I/O v3.6.27",
		"version":"2.0"
	},
	"scene":0,
	"scenes":[
		{
			"name":"Scene",
			"nodes":[
				20
			]
		}
	],
	"nodes":[
		{
			"mesh":0,
			"name":"Object_2"
		},
		{
			"mesh":1,
			"name":"Object_2.001"
		},
		{
			"mesh":2,
			"name":"Object_2.002"
		},
		{
			"mesh":3,
			"name":"Object_2.003"
		},
		{
			"mesh":4,
			"name":"Object_2.004"
		},
		{
			"mesh":5,
			"name":"Object_2.005"
		},
		{
			"mesh":6,
			"name":"Object_2.006"
		},
		{
			"mesh":7,
			"name":"Object_2.007"
		},
		{
			"mesh":8,
			"name":"Object_2.008"
		},
		{
			"mesh":9,
			"name":"Object_2.009"
		},
		{
			"mesh":10,
			"name":"Object_2.010"
		},
		{
			"mesh":11,
			"name":"Object_2.011"
		},
		{
			"mesh":12,
			"name":"Object_2.012"
		},
		{
			"mesh":13,
			"name":"Object_2.013"
		},
		{
			"mesh":14,
			"name":"Object_2.014"
		},
		{
			"mesh":15,
			"name":"Object_3"
		},
		{
			"mesh":16,
			"name":"Object_4"
		},
		{
			"mesh":17,
			"name":"Object_5"
		},
		{
			"mesh":18,
			"name":"Object_6"
		},
		{
			"children":[
				0,
				1,
				2,
				3,
				4,
				5,
				6,
				7,
				8,
				9,
				10,
				11,
				12,
				13,
				14,
				15,
				16,
				17,
				18
			],
			"name":"2009 Ferari California.obj.cleaner.materialmerger.gles"
		},
		{
			"children":[
				19
			],
			"name":"Sketchfab_model",
			"rotation":[
				0,
				-0.7071068286895752,
				-0.7071068286895752,
				1.00153539642818e-16
			],
			"translation":[
				-27.462316513061523,
				0,
				7.152563571929932
			]
		}
	],
	"materials":[
		{
			"doubleSided":true,
			"name":"negro",
			"pbrMetallicRoughness":{
				"baseColorFactor":[
					0,
					0,
					0,
					1
				],
				"metallicFactor":0,
				"roughnessFactor":0.5
			}
		},
		{
			"alphaMode":"BLEND",
			"doubleSided":true,
			"name":"Glass1Mtl",
			"pbrMetallicRoughness":{
				"baseColorFactor":[
					0,
					0,
					0,
					0.644817054271698
				],
				"metallicFactor":0.05000000074505806,
				"roughnessFactor":0
			}
		},
		{
			"doubleSided":true,
			"emissiveTexture":{
				"index":0
			},
			"name":"Interior1Mtl",
			"pbrMetallicRoughness":{
				"baseColorFactor":[
					0,
					0,
					0,
					1
				],
				"roughnessFactor":0.3978658616542816
			}
		},
		{
			"doubleSided":true,
			"name":"Part1Mtl",
			"pbrMetallicRoughness":{
				"baseColorFactor":[
					0.002585829934105277,
					0.002585829934105277,
					0.002585829934105277,
					1
				],
				"metallicFactor":0.05000000074505806,
				"roughnessFactor":0.26371949911117554
			}
		}
	],
	"meshes":[
		{
			"name":"Object_0",
			"primitives":[
				{
					"attributes":{
						"POSITION":0,
						"NORMAL":1,
						"TEXCOORD_0":2
					},
					"indices":3,
					"material":0
				}
			]
		},
		{
			"name":"Object_0.001",
			"primitives":[
				{
					"attributes":{
						"POSITION":4,
						"NORMAL":5,
						"TEXCOORD_0":6
					},
					"indices":7
				}
			]
		},
		{
			"name":"Object_0.005",
			"primitives":[
				{
					"attributes":{
						"POSITION":8,
						"NORMAL":9,
						"TEXCOORD_0":10
					},
					"indices":11
				}
			]
		},
		{
			"name":"Object_0.006",
			"primitives":[
				{
					"attributes":{
						"POSITION":12,
						"NORMAL":13,
						"TEXCOORD_0":14
					},
					"indices":15
				}
			]
		},
		{
			"name":"Object_0.011",
			"primitives":[
				{
					"attributes":{
						"POSITION":16,
						"NORMAL":17,
						"TEXCOORD_0":18
					},
					"indices":19
				}
			]
		},
		{
			"name":"Object_0.015",
			"primitives":[
				{
					"attributes":{
						"POSITION":20,
						"NORMAL":21,
						"TEXCOORD_0":22
					},
					"indices":23
				}
			]
		},
		{
			"name":"Object_0.017",
			"primitives":[
				{
					"attributes":{
						"POSITION":24,
						"NORMAL":25,
						"TEXCOORD_0":26
					},
					"indices":27
				}
			]
		},
		{
			"name":"Object_0.022",
			"primitives":[
				{
					"attributes":{
						"POSITION":28,
						"NORMAL":29,
						"TEXCOORD_0":30
					},
					"indices":31
				}
			]
		},
		{
			"name":"Object_0.019",
			"primitives":[
				{
					"attributes":{
						"POSITION":32,
						"NORMAL":33,
						"TEXCOORD_0":34
					},
					"indices":35
				}
			]
		},
		{
			"name":"Object_0.030",
			"primitives":[
				{
					"attributes":{
						"POSITION":36,
						"NORMAL":37,
						"TEXCOORD_0":38
					},
					"indices":39
				}
			]
		},
		{
			"name":"Object_0.024",
			"primitives":[
				{
					"attributes":{
						"POSITION":40,
						"NORMAL":41,
						"TEXCOORD_0":42
					},
					"indices":43
				}
			]
		},
		{
			"name":"Object_0.037",
			"primitives":[
				{
					"attributes":{
						"POSITION":44,
						"NORMAL":45,
						"TEXCOORD_0":46
					},
					"indices":47
				}
			]
		},
		{
			"name":"Object_0.040",
			"primitives":[
				{
					"attributes":{
						"POSITION":48,
						"NORMAL":49,
						"TEXCOORD_0":50
					},
					"indices":51
				}
			]
		},
		{
			"name":"Object_0.041",
			"primitives":[
				{
					"attributes":{
						"POSITION":52,
						"NORMAL":53,
						"TEXCOORD_0":54
					},
					"indices":55
				}
			]
		},
		{
			"name":"Object_0.045",
			"primitives":[
				{
					"attributes":{
						"POSITION":56,
						"NORMAL":57,
						"TEXCOORD_0":58
					},
					"indices":59
				}
			]
		},
		{
			"name":"Object_1",
			"primitives":[
				{
					"attributes":{
						"POSITION":60,
						"NORMAL":61,
						"TEXCOORD_0":62
					},
					"indices":63,
					"material":1
				}
			]
		},
		{
			"name":"Object_2",
			"primitives":[
				{
					"attributes":{
						"POSITION":64,
						"NORMAL":65,
						"TEXCOORD_0":66
					},
					"indices":67,
					"material":2
				}
			]
		},
		{
			"name":"Object_3",
			"primitives":[
				{
					"attributes":{
						"POSITION":68,
						"NORMAL":69,
						"TEXCOORD_0":70
					},
					"indices":71,
					"material":3
				}
			]
		},
		{
			"name":"Object_4",
			"primitives":[
				{
					"attributes":{
						"POSITION":72,
						"NORMAL":73,
						"TEXCOORD_0":74
					},
					"indices":75
				}
			]
		}
	],
	"textures":[
		{
			"sampler":0,
			"source":0
		}
	],
	"images":[
		{
			"mimeType":"image/png",
			"name":"Interior1Mtl_emissive",
			"uri":"Interior1Mtl_emissive.png"
		}
	],
	"accessors":[
		{
			"bufferView":0,
			"componentType":5126,
			"count":536,
			"max":[
				-22.170000076293945,
				-4.070040225982666,
				4.36575984954834
			],
			"min":[
				-32.36119842529297,
				-10.470000267028809,
				0.800000011920929
			],
			"type":"VEC3"
		},
		{
			"bufferView":1,
			"componentType":5126,
			"count":536,
			"type":"VEC3"
		},
		{
			"bufferView":2,
			"componentType":5126,
			"count":536,
			"type":"VEC2"
		},
		{
			"bufferView":3,
			"componentType":5123,
			"count":942,
			"type":"SCALAR"
		},
		{
			"bufferView":4,
			"componentType":5126,
			"count":335,
			"max":[
				-32.645198822021484,
				-4.035900115966797,
				2.8640999794006348
			],
			"min":[
				-34.911800384521484,
				-10.5177001953125,
				0.42853298783302307
			],
			"type":"VEC3"
		},
		{
			"bufferView":5,
			"componentType":5126,
			"count":335,
			"type":"VEC3"
		},
		{
			"bufferView":6,
			"componentType":5126,
			"count":335,
			"type":"VEC2"
		},
		{
			"bufferView":7,
			"componentType":5123,
			"count":600,
			"type":"SCALAR"
		},
		{
			"bufferView":8,
			"componentType":5126,
			"count":266,
			"max":[
				-29.60059928894043,
				-9.155389785766602,
				3.4118800163269043
			],
			"min":[
				-34.140098571777344,
				-10.543700218200684,
				1.3197799921035767
			],
			"type":"VEC3"
		},
		{
			"bufferView":9,
			"componentType":5126,
			"count":266,
			"type":"VEC3"
		},
		{
			"bufferView":10,
			"componentType":5126,
			"count":266,
			"type":"VEC2"
		},
		{
			"bufferView":11,
			"componentType":5123,
			"count":402,
			"type":"SCALAR"
		},
		{
			"bufferView":12,
			"componentType":5126,
			"count":44,
			"max":[
				-23.88170051574707,
				-9.155400276184082,
				1.3493800163269043
			],
			"min":[
				-30.415199279785156,
				-10.505800247192383,
				0.412992000579834
			],
			"type":"VEC3"
		},
		{
			"bufferView":13,
			"componentType":5126,
			"count":44,
			"type":"VEC3"
		},
		{
			"bufferView":14,
			"componentType":5126,
			"count":44,
			"type":"VEC2"
		},
		{
			"bufferView":15,
			"componentType":5123,
			"count":87,
			"type":"SCALAR"
		},
		{
			"bufferView":16,
			"componentType":5126,
			"count":169,
			"max":[
				-19.939300537109375,
				-4.692850112915039,
				3.0726699829101562
			],
			"min":[
				-25.059999465942383,
				-9.860719680786133,
				2.0341100692749023
			],
			"type":"VEC3"
		},
		{
			"bufferView":17,
			"componentType":5126,
			"count":169,
			"type":"VEC3"
		},
		{
			"bufferView":18,
			"componentType":5126,
			"count":169,
			"type":"VEC2"
		},
		{
			"bufferView":19,
			"componentType":5123,
			"count":420,
			"type":"SCALAR"
		},
		{
			"bufferView":20,
			"componentType":5126,
			"count":51,
			"max":[
				-23.88170051574707,
				-4.046110153198242,
				1.349370002746582
			],
			"min":[
				-30.415199279785156,
				-5.398169994354248,
				0.412992000579834
			],
			"type":"VEC3"
		},
		{
			"bufferView":21,
			"componentType":5126,
			"count":51,
			"type":"VEC3"
		},
		{
			"bufferView":22,
			"componentType":5126,
			"count":51,
			"type":"VEC2"
		},
		{
			"bufferView":23,
			"componentType":5123,
			"count":87,
			"type":"SCALAR"
		},
		{
			"bufferView":24,
			"componentType":5126,
			"count":163,
			"max":[
				-21.039600372314453,
				-9.688179969787598,
				2.9702699184417725
			],
			"min":[
				-25.69300079345703,
				-10.48900032043457,
				0.6227099895477295
			],
			"type":"VEC3"
		},
		{
			"bufferView":25,
			"componentType":5126,
			"count":163,
			"type":"VEC3"
		},
		{
			"bufferView":26,
			"componentType":5126,
			"count":163,
			"type":"VEC2"
		},
		{
			"bufferView":27,
			"componentType":5123,
			"count":270,
			"type":"SCALAR"
		},
		{
			"bufferView":28,
			"componentType":5126,
			"count":155,
			"max":[
				-25.350200653076172,
				-9.975210189819336,
				3.1450700759887695
			],
			"min":[
				-29.89940071105957,
				-10.499799728393555,
				0.7305269837379456
			],
			"type":"VEC3"
		},
		{
			"bufferView":29,
			"componentType":5126,
			"count":155,
			"type":"VEC3"
		},
		{
			"bufferView":30,
			"componentType":5126,
			"count":155,
			"type":"VEC2"
		},
		{
			"bufferView":31,
			"componentType":5123,
			"count":306,
			"type":"SCALAR"
		},
		{
			"bufferView":32,
			"componentType":5126,
			"count":143,
			"max":[
				-25.350200653076172,
				-4.053760051727295,
				3.1450700759887695
			],
			"min":[
				-29.89940071105957,
				-4.57574987411499,
				0.7305269837379456
			],
			"type":"VEC3"
		},
		{
			"bufferView":33,
			"componentType":5126,
			"count":143,
			"type":"VEC3"
		},
		{
			"bufferView":34,
			"componentType":5126,
			"count":143,
			"type":"VEC2"
		},
		{
			"bufferView":35,
			"componentType":5123,
			"count":306,
			"type":"SCALAR"
		},
		{
			"bufferView":36,
			"componentType":5126,
			"count":448,
			"max":[
				-19.34819984436035,
				-4.078549861907959,
				2.171099901199341
			],
			"min":[
				-21.791799545288086,
				-10.475000381469727,
				0.3187060058116913
			],
			"type":"VEC3"
		},
		{
			"bufferView":37,
			"componentType":5126,
			"count":448,
			"type":"VEC3"
		},
		{
			"bufferView":38,
			"componentType":5126,
			"count":448,
			"type":"VEC2"
		},
		{
			"bufferView":39,
			"componentType":5123,
			"count":726,
			"type":"SCALAR"
		},
		{
			"bufferView":40,
			"componentType":5126,
			"count":162,
			"max":[
				-21.039600372314453,
				-4.064539909362793,
				2.9702699184417725
			],
			"min":[
				-25.69300079345703,
				-4.865389823913574,
				0.6227099895477295
			],
			"type":"VEC3"
		},
		{
			"bufferView":41,
			"componentType":5126,
			"count":162,
			"type":"VEC3"
		},
		{
			"bufferView":42,
			"componentType":5126,
			"count":162,
			"type":"VEC2"
		},
		{
			"bufferView":43,
			"componentType":5123,
			"count":270,
			"type":"SCALAR"
		},
		{
			"bufferView":44,
			"componentType":5126,
			"count":343,
			"max":[
				-31.209999084472656,
				-4.576920032501221,
				3.510279893875122
			],
			"min":[
				-34.75400161743164,
				-9.976659774780273,
				2.1186699867248535
			],
			"type":"VEC3"
		},
		{
			"bufferView":45,
			"componentType":5126,
			"count":343,
			"type":"VEC3"
		},
		{
			"bufferView":46,
			"componentType":5126,
			"count":343,
			"type":"VEC2"
		},
		{
			"bufferView":47,
			"componentType":5123,
			"count":693,
			"type":"SCALAR"
		},
		{
			"bufferView":48,
			"componentType":5126,
			"count":13,
			"max":[
				-34.22520065307617,
				-9.125309944152832,
				3.1638801097869873
			],
			"min":[
				-34.39350128173828,
				-9.6593599319458,
				2.6325299739837646
			],
			"type":"VEC3"
		},
		{
			"bufferView":49,
			"componentType":5126,
			"count":13,
			"type":"VEC3"
		},
		{
			"bufferView":50,
			"componentType":5126,
			"count":13,
			"type":"VEC2"
		},
		{
			"bufferView":51,
			"componentType":5123,
			"count":36,
			"type":"SCALAR"
		},
		{
			"bufferView":52,
			"componentType":5126,
			"count":13,
			"max":[
				-34.22520065307617,
				-4.894209861755371,
				3.1638801097869873
			],
			"min":[
				-34.39350128173828,
				-5.42825984954834,
				2.6325299739837646
			],
			"type":"VEC3"
		},
		{
			"bufferView":53,
			"componentType":5126,
			"count":13,
			"type":"VEC3"
		},
		{
			"bufferView":54,
			"componentType":5126,
			"count":13,
			"type":"VEC2"
		},
		{
			"bufferView":55,
			"componentType":5123,
			"count":36,
			"type":"SCALAR"
		},
		{
			"bufferView":56,
			"componentType":5126,
			"count":99,
			"max":[
				-29.60059928894043,
				-4.009860038757324,
				3.4118800163269043
			],
			"min":[
				-34.140098571777344,
				-4.872270107269287,
				1.3197799921035767
			],
			"type":"VEC3"
		},
		{
			"bufferView":57,
			"componentType":5126,
			"count":99,
			"type":"VEC3"
		},
		{
			"bufferView":58,
			"componentType":5126,
			"count":99,
			"type":"VEC2"
		},
		{
			"bufferView":59,
			"componentType":5123,
			"count":195,
			"type":"SCALAR"
		},
		{
			"bufferView":60,
			"componentType":5126,
			"count":356,
			"max":[
				-20.21540069580078,
				-4.5105299949646,
				4.286449909210205
			],
			"min":[
				-32.27629852294922,
				-10.043000221252441,
				1.9482699632644653
			],
			"type":"VEC3"
		},
		{
			"bufferView":61,
			"componentType":5126,
			"count":356,
			"type":"VEC3"
		},
		{
			"bufferView":62,
			"componentType":5126,
			"count":356,
			"type":"VEC2"
		},
		{
			"bufferView":63,
			"componentType":5123,
			"count":948,
			"type":"SCALAR"
		},
		{
			"bufferView":64,
			"componentType":5126,
			"count":607,
			"max":[
				-24.61720085144043,
				-4.512770175933838,
				4.2865400314331055
			],
			"min":[
				-32.27619934082031,
				-10.040800094604492,
				0.5339120030403137
			],
			"type":"VEC3"
		},
		{
			"bufferView":65,
			"componentType":5126,
			"count":607,
			"type":"VEC3"
		},
		{
			"bufferView":66,
			"componentType":5126,
			"count":607,
			"type":"VEC2"
		},
		{
			"bufferView":67,
			"componentType":5123,
			"count":1044,
			"type":"SCALAR"
		},
		{
			"bufferView":68,
			"componentType":5126,
			"count":993,
			"max":[
				-19.36280059814453,
				-3.870039939880371,
				3.5346500873565674
			],
			"min":[
				-34.885501861572266,
				-10.670000076293945,
				2.3841900542720396e-07
			],
			"type":"VEC3"
		},
		{
			"bufferView":69,
			"componentType":5126,
			"count":993,
			"type":"VEC3"
		},
		{
			"bufferView":70,
			"componentType":5126,
			"count":993,
			"type":"VEC2"
		},
		{
			"bufferView":71,
			"componentType":5123,
			"count":2130,
			"type":"SCALAR"
		},
		{
			"bufferView":72,
			"componentType":5126,
			"count":26,
			"max":[
				-27.079700469970703,
				-5.668449878692627,
				2.0001399517059326
			],
			"min":[
				-28.07990074157715,
				-8.869270324707031,
				0.9974880218505859
			],
			"type":"VEC3"
		},
		{
			"bufferView":73,
			"componentType":5126,
			"count":26,
			"type":"VEC3"
		},
		{
			"bufferView":74,
			"componentType":5126,
			"count":26,
			"type":"VEC2"
		},
		{
			"bufferView":75,
			"componentType":5123,
			"count":36,
			"type":"SCALAR"
		}
	],
	"bufferViews":[
		{
			"buffer":0,
			"byteLength":6432,
			"byteOffset":0,
			"target":34962
		},
		{
			"buffer":0,
			"byteLength":6432,
			"byteOffset":6432,
			"target":34962
		},
		{
			"buffer":0,
			"byteLength":4288,
			"byteOffset":12864,
			"target":34962
		},
		{
			"buffer":0,
			"byteLength":1884,
			"byteOffset":17152,
			"target":34963
		},
		{
			"buffer":0,
			"byteLength":4020,
			"byteOffset":19036,
			"target":34962
		},
		{
			"buffer":0,
			"byteLength":4020,
			"byteOffset":23056,
			"target":34962
		},
		{
			"buffer":0,
			"byteLength":2680,
			"byteOffset":27076,
			"target":34962
		},
		{
			"buffer":0,
			"byteLength":1200,
			"byteOffset":29756,
			"target":34963
		},
		{
			"buffer":0,
			"byteLength":3192,
			"byteOffset":30956,
			"target":34962
		},
		{
			"buffer":0,
			"byteLength":3192,
			"byteOffset":34148,
			"target":34962
		},
		{
			"buffer":0,
			"byteLength":2128,
			"byteOffset":37340,
			"target":34962
		},
		{
			"buffer":0,
			"byteLength":804,
			"byteOffset":39468,
			"target":34963
		},
		{
			"buffer":0,
			"byteLength":528,
			"byteOffset":40272,
			"target":34962
		},
		{
			"buffer":0,
			"byteLength":528,
			"byteOffset":40800,
			"target":34962
		},
		{
			"buffer":0,
			"byteLength":352,
			"byteOffset":41328,
			"target":34962
		},
		{
			"buffer":0,
			"byteLength":174,
			"byteOffset":41680,
			"target":34963
		},
		{
			"buffer":0,
			"byteLength":2028,
			"byteOffset":41856,
			"target":34962
		},
		{
			"buffer":0,
			"byteLength":2028,
			"byteOffset":43884,
			"target":34962
		},
		{
			"buffer":0,
			"byteLength":1352,
			"byteOffset":45912,
			"target":34962
		},
		{
			"buffer":0,
			"byteLength":840,
			"byteOffset":47264,
			"target":34963
		},
		{
			"buffer":0,
			"byteLength":612,
			"byteOffset":48104,
			"target":34962
		},
		{
			"buffer":0,
			"byteLength":612,
			"byteOffset":48716,
			"target":34962
		},
		{
			"buffer":0,
			"byteLength":408,
			"byteOffset":49328,
			"target":34962
		},
		{
			"buffer":0,
			"byteLength":174,
			"byteOffset":49736,
			"target":34963
		},
		{
			"buffer":0,
			"byteLength":1956,
			"byteOffset":49912,
			"target":34962
		},
		{
			"buffer":0,
			"byteLength":1956,
			"byteOffset":51868,
			"target":34962
		},
		{
			"buffer":0,
			"byteLength":1304,
			"byteOffset":53824,
			"target":34962
		},
		{
			"buffer":0,
			"byteLength":540,
			"byteOffset":55128,
			"target":34963
		},
		{
			"buffer":0,
			"byteLength":1860,
			"byteOffset":55668,
			"target":34962
		},
		{
			"buffer":0,
			"byteLength":1860,
			"byteOffset":57528,
			"target":34962
		},
		{
			"buffer":0,
			"byteLength":1240,
			"byteOffset":59388,
			"target":34962
		},
		{
			"buffer":0,
			"byteLength":612,
			"byteOffset":60628,
			"target":34963
		},
		{
			"buffer":0,
			"byteLength":1716,
			"byteOffset":61240,
			"target":34962
		},
		{
			"buffer":0,
			"byteLength":1716,
			"byteOffset":62956,
			"target":34962
		},
		{
			"buffer":0,
			"byteLength":1144,
			"byteOffset":64672,
			"target":34962
		},
		{
			"buffer":0,
			"byteLength":612,
			"byteOffset":65816,
			"target":34963
		},
		{
			"buffer":0,
			"byteLength":5376,
			"byteOffset":66428,
			"target":34962
		},
		{
			"buffer":0,
			"byteLength":5376,
			"byteOffset":71804,
			"target":34962
		},
		{
			"buffer":0,
			"byteLength":3584,
			"byteOffset":77180,
			"target":34962
		},
		{
			"buffer":0,
			"byteLength":1452,
			"byteOffset":80764,
			"target":34963
		},
		{
			"buffer":0,
			"byteLength":1944,
			"byteOffset":82216,
			"target":34962
		},
		{
			"buffer":0,
			"byteLength":1944,
			"byteOffset":84160,
			"target":34962
		},
		{
			"buffer":0,
			"byteLength":1296,
			"byteOffset":86104,
			"target":34962
		},
		{
			"buffer":0,
			"byteLength":540,
			"byteOffset":87400,
			"target":34963
		},
		{
			"buffer":0,
			"byteLength":4116,
			"byteOffset":87940,
			"target":34962
		},
		{
			"buffer":0,
			"byteLength":4116,
			"byteOffset":92056,
			"target":34962
		},
		{
			"buffer":0,
			"byteLength":2744,
			"byteOffset":96172,
			"target":34962
		},
		{
			"buffer":0,
			"byteLength":1386,
			"byteOffset":98916,
			"target":34963
		},
		{
			"buffer":0,
			"byteLength":156,
			"byteOffset":100304,
			"target":34962
		},
		{
			"buffer":0,
			"byteLength":156,
			"byteOffset":100460,
			"target":34962
		},
		{
			"buffer":0,
			"byteLength":104,
			"byteOffset":100616,
			"target":34962
		},
		{
			"buffer":0,
			"byteLength":72,
			"byteOffset":100720,
			"target":34963
		},
		{
			"buffer":0,
			"byteLength":156,
			"byteOffset":100792,
			"target":34962
		},
		{
			"buffer":0,
			"byteLength":156,
			"byteOffset":100948,
			"target":34962
		},
		{
			"buffer":0,
			"byteLength":104,
			"byteOffset":101104,
			"target":34962
		},
		{
			"buffer":0,
			"byteLength":72,
			"byteOffset":101208,
			"target":34963
		},
		{
			"buffer":0,
			"byteLength":1188,
			"byteOffset":101280,
			"target":34962
		},
		{
			"buffer":0,
			"byteLength":1188,
			"byteOffset":102468,
			"target":34962
		},
		{
			"buffer":0,
			"byteLength":792,
			"byteOffset":103656,
			"target":34962
		},
		{
			"buffer":0,
			"byteLength":390,
			"byteOffset":104448,
			"target":34963
		},
		{
			"buffer":0,
			"byteLength":4272,
			"byteOffset":104840,
			"target":34962
		},
		{
			"buffer":0,
			"byteLength":4272,
			"byteOffset":109112,
			"target":34962
		},
		{
			"buffer":0,
			"byteLength":2848,
			"byteOffset":113384,
			"target":34962
		},
		{
			"buffer":0,
			"byteLength":1896,
			"byteOffset":116232,
			"target":34963
		},
		{
			"buffer":0,
			"byteLength":7284,
			"byteOffset":118128,
			"target":34962
		},
		{
			"buffer":0,
			"byteLength":7284,
			"byteOffset":125412,
			"target":34962
		},
		{
			"buffer":0,
			"byteLength":4856,
			"byteOffset":132696,
			"target":34962
		},
		{
			"buffer":0,
			"byteLength":2088,
			"byteOffset":137552,
			"target":34963
		},
		{
			"buffer":0,
			"byteLength":11916,
			"byteOffset":139640,
			"target":34962
		},
		{
			"buffer":0,
			"byteLength":11916,
			"byteOffset":151556,
			"target":34962
		},
		{
			"buffer":0,
			"byteLength":7944,
			"byteOffset":163472,
			"target":34962
		},
		{
			"buffer":0,
			"byteLength":4260,
			"byteOffset":171416,
			"target":34963
		},
		{
			"buffer":0,
			"byteLength":312,
			"byteOffset":175676,
			"target":34962
		},
		{
			"buffer":0,
			"byteLength":312,
			"byteOffset":175988,
			"target":34962
		},
		{
			"buffer":0,
			"byteLength":208,
			"byteOffset":176300,
			"target":34962
		},
		{
			"buffer":0,
			"byteLength":72,
			"byteOffset":176508,
			"target":34963
		}
	],
	"samplers":[
		{
			"magFilter":9729,
			"minFilter":9987
		}
	],
	"buffers":[
		{
			"byteLength":176580,
			"uri":"scene.bin"
		}
	]
}
