{
	"asset":{
		"generator":"Khronos glTF Blender I/O v3.6.27",
		"version":"2.0"
	},
	"scene":0,
	"scenes":[
		{
			"name":"Scene",
			"nodes":[
				0
			]
		}
	],
	"nodes":[
		{
			"mesh":0,
			"name":"Cube",
			"rotation":[
				0,
				-0.72996586561203,
				0,
				0.6834836602210999
			],
			"translation":[
				9.739669799804688,
				9.161609649658203,
				6.23675012588501
			]
		}
	],
	"materials":[
		{
			"doubleSided":true,
			"name":"CHECK",
			"pbrMetallicRoughness":{
				"baseColorFactor":[
					0.06300994753837585,
					0.06480321288108826,
					0.056128501892089844,
					1
				],
				"metallicFactor":0,
				"roughnessFactor":0.5
			}
		}
	],
	"meshes":[
		{
			"name":"Cube.003",
			"primitives":[
				{
					"attributes":{
						"POSITION":0,
						"NORMAL":1,
						"TEXCOORD_0":2
					},
					"indices":3,
					"material":0
				}
			]
		}
	],
	"accessors":[
		{
			"bufferView":0,
			"componentType":5126,
			"count":46,
			"max":[
				1.000590205192566,
				0.5599315166473389,
				-0.23298883438110352
			],
			"min":[
				-1,
				-1,
				-0.6561229228973389
			],
			"type":"VEC3"
		},
		{
			"bufferView":1,
			"componentType":5126,
			"count":46,
			"type":"VEC3"
		},
		{
			"bufferView":2,
			"componentType":5126,
			"count":46,
			"type":"VEC2"
		},
		{
			"bufferView":3,
			"componentType":5123,
			"count":84,
			"type":"SCALAR"
		}
	],
	"bufferViews":[
		{
			"buffer":0,
			"byteLength":552,
			"byteOffset":0,
			"target":34962
		},
		{
			"buffer":0,
			"byteLength":552,
			"byteOffset":552,
			"target":34962
		},
		{
			"buffer":0,
			"byteLength":368,
			"byteOffset":1104,
			"target":34962
		},
		{
			"buffer":0,
			"byteLength":168,
			"byteOffset":1472,
			"target":34963
		}
	],
	"buffers":[
		{
			"byteLength":1640,
			"uri":"p1.bin"
		}
	]
}
